<svg aria-roledescription="flowchart-v2" role="graphics-document document" viewBox="-8 -8 473.25 1281" style="max-width: 473.25px;" xmlns="http://www.w3.org/2000/svg" width="473.25" id="svg" xmlns:xlink="http://www.w3.org/1999/xlink" height="1281"><style>#svg{font-family:"trebuchet ms",verdana,arial,sans-serif;font-size:16px;fill:#333;}#svg .error-icon{fill:#552222;}#svg .error-text{fill:#552222;stroke:#552222;}#svg .edge-thickness-normal{stroke-width:2px;}#svg .edge-thickness-thick{stroke-width:3.5px;}#svg .edge-pattern-solid{stroke-dasharray:0;}#svg .edge-pattern-dashed{stroke-dasharray:3;}#svg .edge-pattern-dotted{stroke-dasharray:2;}#svg .marker{fill:#333333;stroke:#333333;}#svg .marker.cross{stroke:#333333;}#svg svg{font-family:"trebuchet ms",verdana,arial,sans-serif;font-size:16px;}#svg .label{font-family:"trebuchet ms",verdana,arial,sans-serif;color:#333;}#svg .cluster-label text{fill:#333;}#svg .cluster-label span,#svg p{color:#333;}#svg .label text,#svg span,#svg p{fill:#333;color:#333;}#svg .node rect,#svg .node circle,#svg .node ellipse,#svg .node polygon,#svg .node path{fill:#ECECFF;stroke:#9370DB;stroke-width:1px;}#svg .flowchart-label text{text-anchor:middle;}#svg .node .katex path{fill:#000;stroke:#000;stroke-width:1px;}#svg .node .label{text-align:center;}#svg .node.clickable{cursor:pointer;}#svg .arrowheadPath{fill:#333333;}#svg .edgePath .path{stroke:#333333;stroke-width:2.0px;}#svg .flowchart-link{stroke:#333333;fill:none;}#svg .edgeLabel{background-color:#e8e8e8;text-align:center;}#svg .edgeLabel rect{opacity:0.5;background-color:#e8e8e8;fill:#e8e8e8;}#svg .labelBkg{background-color:rgba(232, 232, 232, 0.5);}#svg .cluster rect{fill:#ffffde;stroke:#aaaa33;stroke-width:1px;}#svg .cluster text{fill:#333;}#svg .cluster span,#svg p{color:#333;}#svg div.mermaidTooltip{position:absolute;text-align:center;max-width:200px;padding:2px;font-family:"trebuchet ms",verdana,arial,sans-serif;font-size:12px;background:hsl(80, 100%, 96.2745098039%);border:1px solid #aaaa33;border-radius:2px;pointer-events:none;z-index:100;}#svg .flowchartTitleText{text-anchor:middle;font-size:18px;fill:#333;}#svg .today{display:none;}#svg .label foreignObject{overflow:visible;}#svg :root{--mermaid-font-family:"trebuchet ms",verdana,arial,sans-serif;}#svg .checkStyle&gt;*{fill:#4A90E2!important;stroke:none!important;color:#fff!important;}#svg .checkStyle span{fill:#4A90E2!important;stroke:none!important;color:#fff!important;}#svg .checkStyle tspan{fill:#fff!important;}#svg .actionStyle&gt;*{fill:#50C878!important;stroke:none!important;color:#fff!important;}#svg .actionStyle span{fill:#50C878!important;stroke:none!important;color:#fff!important;}#svg .actionStyle tspan{fill:#fff!important;}#svg .errorStyle&gt;*{fill:#E85D75!important;stroke:none!important;color:#fff!important;}#svg .errorStyle span{fill:#E85D75!important;stroke:none!important;color:#fff!important;}#svg .errorStyle tspan{fill:#fff!important;}</style><g><marker orient="auto" markerHeight="12" markerWidth="12" markerUnits="userSpaceOnUse" refY="5" refX="6" viewBox="0 0 10 10" class="marker flowchart" id="svg_flowchart-pointEnd"><path style="stroke-width: 1; stroke-dasharray: 1, 0;" class="arrowMarkerPath" d="M 0 0 L 10 5 L 0 10 z"></path></marker><marker orient="auto" markerHeight="12" markerWidth="12" markerUnits="userSpaceOnUse" refY="5" refX="4.5" viewBox="0 0 10 10" class="marker flowchart" id="svg_flowchart-pointStart"><path style="stroke-width: 1; stroke-dasharray: 1, 0;" class="arrowMarkerPath" d="M 0 5 L 10 10 L 10 0 z"></path></marker><marker orient="auto" markerHeight="11" markerWidth="11" markerUnits="userSpaceOnUse" refY="5" refX="11" viewBox="0 0 10 10" class="marker flowchart" id="svg_flowchart-circleEnd"><circle style="stroke-width: 1; stroke-dasharray: 1, 0;" class="arrowMarkerPath" r="5" cy="5" cx="5"></circle></marker><marker orient="auto" markerHeight="11" markerWidth="11" markerUnits="userSpaceOnUse" refY="5" refX="-1" viewBox="0 0 10 10" class="marker flowchart" id="svg_flowchart-circleStart"><circle style="stroke-width: 1; stroke-dasharray: 1, 0;" class="arrowMarkerPath" r="5" cy="5" cx="5"></circle></marker><marker orient="auto" markerHeight="11" markerWidth="11" markerUnits="userSpaceOnUse" refY="5.2" refX="12" viewBox="0 0 11 11" class="marker cross flowchart" id="svg_flowchart-crossEnd"><path style="stroke-width: 2; stroke-dasharray: 1, 0;" class="arrowMarkerPath" d="M 1,1 l 9,9 M 10,1 l -9,9"></path></marker><marker orient="auto" markerHeight="11" markerWidth="11" markerUnits="userSpaceOnUse" refY="5.2" refX="-1" viewBox="0 0 11 11" class="marker cross flowchart" id="svg_flowchart-crossStart"><path style="stroke-width: 2; stroke-dasharray: 1, 0;" class="arrowMarkerPath" d="M 1,1 l 9,9 M 10,1 l -9,9"></path></marker><g class="root"><g class="clusters"></g><g class="edgePaths"><path marker-end="url(#svg_flowchart-pointEnd)" style="fill:none;" class="edge-thickness-normal edge-pattern-solid flowchart-link LS-Start LE-Local" id="L-Start-Local-0" d="M209.5,36L209.5,40.167C209.5,44.333,209.5,52.667,209.566,60.2C209.632,67.734,209.764,74.467,209.83,77.834L209.896,81.201"></path><path marker-end="url(#svg_flowchart-pointEnd)" style="fill:none;" class="edge-thickness-normal edge-pattern-solid flowchart-link LS-Local LE-Use" id="L-Local-Use-0" d="M163.47,184.97L138.892,198.558C114.313,212.147,65.157,239.323,40.578,270.912C16,302.5,16,338.5,16,374.5C16,410.5,16,446.5,16,482.5C16,518.5,16,554.5,16,590.5C16,626.5,16,662.5,16,689.417C16,716.333,16,734.167,16,752C16,769.833,16,787.667,16,814.583C16,841.5,16,877.5,16,913.5C16,949.5,16,985.5,16,1012.417C16,1039.333,16,1057.167,16,1073.25C16,1089.333,16,1103.667,16,1118C16,1132.333,16,1146.667,16,1161C16,1175.333,16,1189.667,27.918,1201.086C39.836,1212.506,63.672,1221.012,75.59,1225.265L87.508,1229.517"></path><path marker-end="url(#svg_flowchart-pointEnd)" style="fill:none;" class="edge-thickness-normal edge-pattern-solid flowchart-link LS-Local LE-Private" id="L-Local-Private-0" d="M234.092,207.408L238.952,217.257C243.811,227.105,253.531,246.803,258.461,261.768C263.392,276.734,263.534,286.967,263.605,292.084L263.676,297.201"></path><path marker-end="url(#svg_flowchart-pointEnd)" style="fill:none;" class="edge-thickness-normal edge-pattern-solid flowchart-link LS-Private LE-CheckPrivate" id="L-Private-CheckPrivate-0" d="M224.428,408.178L209.565,420.565C194.702,432.952,164.976,457.726,150.184,475.23C135.392,492.734,135.534,502.967,135.605,508.084L135.676,513.201"></path><path marker-end="url(#svg_flowchart-pointEnd)" style="fill:none;" class="edge-thickness-normal edge-pattern-solid flowchart-link LS-Private LE-Central" id="L-Private-Central-0" d="M298.424,412.826L309.062,424.438C319.699,436.051,340.975,459.275,351.612,488.888C362.25,518.5,362.25,554.5,362.25,590.5C362.25,626.5,362.25,662.5,360.153,685.6C358.056,708.699,353.862,718.899,351.765,723.999L349.668,729.098"></path><path marker-end="url(#svg_flowchart-pointEnd)" style="fill:none;" class="edge-thickness-normal edge-pattern-solid flowchart-link LS-CheckPrivate LE-DownPrivate" id="L-CheckPrivate-DownPrivate-0" d="M123.481,651.231L121.776,659.109C120.071,666.987,116.66,682.744,114.955,699.538C113.25,716.333,113.25,734.167,113.25,752C113.25,769.833,113.25,787.667,113.25,814.583C113.25,841.5,113.25,877.5,113.25,913.5C113.25,949.5,113.25,985.5,113.25,1008.533C113.25,1031.567,113.25,1041.633,113.25,1046.667L113.25,1051.7"></path><path marker-end="url(#svg_flowchart-pointEnd)" style="fill:none;" class="edge-thickness-normal edge-pattern-solid flowchart-link LS-CheckPrivate LE-Central" id="L-CheckPrivate-Central-0" d="M165.926,633.324L173.646,644.187C181.367,655.05,196.809,676.775,217.87,693.213C238.932,709.652,265.613,720.804,278.954,726.38L292.295,731.956"></path><path marker-end="url(#svg_flowchart-pointEnd)" style="fill:none;" class="edge-thickness-normal edge-pattern-solid flowchart-link LS-Central LE-Found" id="L-Central-Found-0" d="M340.25,770L340.25,775.917C340.25,781.833,340.25,793.667,340.321,804.7C340.392,815.734,340.534,825.967,340.605,831.084L340.676,836.201"></path><path marker-end="url(#svg_flowchart-pointEnd)" style="fill:none;" class="edge-thickness-normal edge-pattern-solid flowchart-link LS-Found LE-DownCentral" id="L-Found-DownCentral-0" d="M311.51,957.26L304.133,967.966C296.756,978.673,282.003,1000.087,274.627,1015.827C267.25,1031.567,267.25,1041.633,267.25,1046.667L267.25,1051.7"></path><path marker-end="url(#svg_flowchart-pointEnd)" style="fill:none;" class="edge-thickness-normal edge-pattern-solid flowchart-link LS-Found LE-Error" id="L-Found-Error-0" d="M369.99,957.26L377.2,967.966C384.41,978.673,398.83,1000.087,406.04,1015.827C413.25,1031.567,413.25,1041.633,413.25,1046.667L413.25,1051.7"></path><path marker-end="url(#svg_flowchart-pointEnd)" style="fill:none;" class="edge-thickness-normal edge-pattern-solid flowchart-link LS-DownPrivate LE-SaveLocal" id="L-DownPrivate-SaveLocal-0" d="M113.25,1093L113.25,1097.167C113.25,1101.333,113.25,1109.667,119.94,1117.569C126.63,1125.472,140.01,1132.944,146.7,1136.68L153.39,1140.416"></path><path marker-end="url(#svg_flowchart-pointEnd)" style="fill:none;" class="edge-thickness-normal edge-pattern-solid flowchart-link LS-DownCentral LE-SaveLocal" id="L-DownCentral-SaveLocal-0" d="M267.25,1093L267.25,1097.167C267.25,1101.333,267.25,1109.667,260.56,1117.569C253.87,1125.472,240.49,1132.944,233.8,1136.68L227.11,1140.416"></path><path marker-end="url(#svg_flowchart-pointEnd)" style="fill:none;" class="edge-thickness-normal edge-pattern-solid flowchart-link LS-SaveLocal LE-Use" id="L-SaveLocal-Use-0" d="M190.25,1179L190.25,1183.167C190.25,1187.333,190.25,1195.667,185.731,1203.448C181.213,1211.23,172.176,1218.459,167.657,1222.074L163.139,1225.689"></path></g><g class="edgeLabels"><g class="edgeLabel"><g transform="translate(0, 0)" class="label"><foreignObject height="0" width="0"><div style="display: inline-block; white-space: nowrap;" xmlns="http://www.w3.org/1999/xhtml"><span class="edgeLabel"></span></div></foreignObject></g></g><g transform="translate(16, 805.5)" class="edgeLabel"><g transform="translate(-16, -10.5)" class="label"><foreignObject height="21" width="32"><div style="display: inline-block; white-space: nowrap;" xmlns="http://www.w3.org/1999/xhtml"><span class="edgeLabel">存在</span></div></foreignObject></g></g><g transform="translate(263.25, 266.5)" class="edgeLabel"><g transform="translate(-24, -10.5)" class="label"><foreignObject height="21" width="48"><div style="display: inline-block; white-space: nowrap;" xmlns="http://www.w3.org/1999/xhtml"><span class="edgeLabel">不存在</span></div></foreignObject></g></g><g transform="translate(135.25, 482.5)" class="edgeLabel"><g transform="translate(-24, -10.5)" class="label"><foreignObject height="21" width="48"><div style="display: inline-block; white-space: nowrap;" xmlns="http://www.w3.org/1999/xhtml"><span class="edgeLabel">已配置</span></div></foreignObject></g></g><g transform="translate(362.25, 590.5)" class="edgeLabel"><g transform="translate(-24, -10.5)" class="label"><foreignObject height="21" width="48"><div style="display: inline-block; white-space: nowrap;" xmlns="http://www.w3.org/1999/xhtml"><span class="edgeLabel">未配置</span></div></foreignObject></g></g><g transform="translate(113.25, 805.5)" class="edgeLabel"><g transform="translate(-16, -10.5)" class="label"><foreignObject height="21" width="32"><div style="display: inline-block; white-space: nowrap;" xmlns="http://www.w3.org/1999/xhtml"><span class="edgeLabel">存在</span></div></foreignObject></g></g><g transform="translate(212.25, 698.5)" class="edgeLabel"><g transform="translate(-24, -10.5)" class="label"><foreignObject height="21" width="48"><div style="display: inline-block; white-space: nowrap;" xmlns="http://www.w3.org/1999/xhtml"><span class="edgeLabel">不存在</span></div></foreignObject></g></g><g class="edgeLabel"><g transform="translate(0, 0)" class="label"><foreignObject height="0" width="0"><div style="display: inline-block; white-space: nowrap;" xmlns="http://www.w3.org/1999/xhtml"><span class="edgeLabel"></span></div></foreignObject></g></g><g transform="translate(267.25, 1021.5)" class="edgeLabel"><g transform="translate(-16, -10.5)" class="label"><foreignObject height="21" width="32"><div style="display: inline-block; white-space: nowrap;" xmlns="http://www.w3.org/1999/xhtml"><span class="edgeLabel">存在</span></div></foreignObject></g></g><g transform="translate(413.25, 1021.5)" class="edgeLabel"><g transform="translate(-24, -10.5)" class="label"><foreignObject height="21" width="48"><div style="display: inline-block; white-space: nowrap;" xmlns="http://www.w3.org/1999/xhtml"><span class="edgeLabel">不存在</span></div></foreignObject></g></g><g class="edgeLabel"><g transform="translate(0, 0)" class="label"><foreignObject height="0" width="0"><div style="display: inline-block; white-space: nowrap;" xmlns="http://www.w3.org/1999/xhtml"><span class="edgeLabel"></span></div></foreignObject></g></g><g class="edgeLabel"><g transform="translate(0, 0)" class="label"><foreignObject height="0" width="0"><div style="display: inline-block; white-space: nowrap;" xmlns="http://www.w3.org/1999/xhtml"><span class="edgeLabel"></span></div></foreignObject></g></g><g class="edgeLabel"><g transform="translate(0, 0)" class="label"><foreignObject height="0" width="0"><div style="display: inline-block; white-space: nowrap;" xmlns="http://www.w3.org/1999/xhtml"><span class="edgeLabel"></span></div></foreignObject></g></g></g><g class="nodes"><g transform="translate(209.5, 18)" data-id="Start" data-node="true" id="flowchart-Start-0" class="node default default flowchart-label"><rect height="36" width="88" y="-18" x="-44" ry="18" rx="18" style=""></rect><g transform="translate(-32, -10.5)" style="" class="label"><rect></rect><foreignObject height="21" width="64"><div style="display: inline-block; white-space: nowrap;" xmlns="http://www.w3.org/1999/xhtml"><span class="nodeLabel">需要依赖</span></div></foreignObject></g></g><g transform="translate(209.5, 158.5)" data-id="Local" data-node="true" id="flowchart-Local-1" class="node default checkStyle flowchart-label"><polygon style="" transform="translate(-72.5,72.5)" class="label-container" points="72.5,0 145,-72.5 72.5,-145 0,-72.5"></polygon><g transform="translate(-36.5, -21)" style="" class="label"><rect></rect><foreignObject height="42" width="73"><div style="display: inline-block; white-space: nowrap;" xmlns="http://www.w3.org/1999/xhtml"><span class="nodeLabel">本地仓库<br/>是否存在?</span></div></foreignObject></g></g><g transform="translate(136.5, 1247)" data-id="Use" data-node="true" id="flowchart-Use-3" class="node default actionStyle flowchart-label"><rect height="36" width="88" y="-18" x="-44" ry="18" rx="18" style=""></rect><g transform="translate(-32, -10.5)" style="" class="label"><rect></rect><foreignObject height="21" width="64"><div style="display: inline-block; white-space: nowrap;" xmlns="http://www.w3.org/1999/xhtml"><span class="nodeLabel">直接使用</span></div></foreignObject></g></g><g transform="translate(263.25, 374.5)" data-id="Private" data-node="true" id="flowchart-Private-5" class="node default checkStyle flowchart-label"><polygon style="" transform="translate(-72.5,72.5)" class="label-container" points="72.5,0 145,-72.5 72.5,-145 0,-72.5"></polygon><g transform="translate(-36.5, -21)" style="" class="label"><rect></rect><foreignObject height="42" width="73"><div style="display: inline-block; white-space: nowrap;" xmlns="http://www.w3.org/1999/xhtml"><span class="nodeLabel">私服<br/>是否配置?</span></div></foreignObject></g></g><g transform="translate(135.25, 590.5)" data-id="CheckPrivate" data-node="true" id="flowchart-CheckPrivate-7" class="node default checkStyle flowchart-label"><polygon style="" transform="translate(-72.5,72.5)" class="label-container" points="72.5,0 145,-72.5 72.5,-145 0,-72.5"></polygon><g transform="translate(-36.5, -21)" style="" class="label"><rect></rect><foreignObject height="42" width="73"><div style="display: inline-block; white-space: nowrap;" xmlns="http://www.w3.org/1999/xhtml"><span class="nodeLabel">私服中<br/>是否存在?</span></div></foreignObject></g></g><g transform="translate(340.25, 752)" data-id="Central" data-node="true" id="flowchart-Central-9" class="node default actionStyle flowchart-label"><rect height="36" width="120" y="-18" x="-60" ry="18" rx="18" style=""></rect><g transform="translate(-48, -10.5)" style="" class="label"><rect></rect><foreignObject height="21" width="96"><div style="display: inline-block; white-space: nowrap;" xmlns="http://www.w3.org/1999/xhtml"><span class="nodeLabel">访问中央仓库</span></div></foreignObject></g></g><g transform="translate(113.25, 1075)" data-id="DownPrivate" data-node="true" id="flowchart-DownPrivate-11" class="node default actionStyle flowchart-label"><rect height="36" width="104" y="-18" x="-52" ry="18" rx="18" style=""></rect><g transform="translate(-40, -10.5)" style="" class="label"><rect></rect><foreignObject height="21" width="80"><div style="display: inline-block; white-space: nowrap;" xmlns="http://www.w3.org/1999/xhtml"><span class="nodeLabel">从私服下载</span></div></foreignObject></g></g><g transform="translate(340.25, 913.5)" data-id="Found" data-node="true" id="flowchart-Found-15" class="node default checkStyle flowchart-label"><polygon style="" transform="translate(-72.5,72.5)" class="label-container" points="72.5,0 145,-72.5 72.5,-145 0,-72.5"></polygon><g transform="translate(-36.5, -21)" style="" class="label"><rect></rect><foreignObject height="42" width="73"><div style="display: inline-block; white-space: nowrap;" xmlns="http://www.w3.org/1999/xhtml"><span class="nodeLabel">中央仓库<br/>是否存在?</span></div></foreignObject></g></g><g transform="translate(267.25, 1075)" data-id="DownCentral" data-node="true" id="flowchart-DownCentral-17" class="node default actionStyle flowchart-label"><rect height="36" width="104" y="-18" x="-52" ry="18" rx="18" style=""></rect><g transform="translate(-40, -10.5)" style="" class="label"><rect></rect><foreignObject height="21" width="80"><div style="display: inline-block; white-space: nowrap;" xmlns="http://www.w3.org/1999/xhtml"><span class="nodeLabel">从中央下载</span></div></foreignObject></g></g><g transform="translate(413.25, 1075)" data-id="Error" data-node="true" id="flowchart-Error-19" class="node default errorStyle flowchart-label"><rect height="36" width="88" y="-18" x="-44" ry="18" rx="18" style=""></rect><g transform="translate(-32, -10.5)" style="" class="label"><rect></rect><foreignObject height="21" width="64"><div style="display: inline-block; white-space: nowrap;" xmlns="http://www.w3.org/1999/xhtml"><span class="nodeLabel">构建失败</span></div></foreignObject></g></g><g transform="translate(190.25, 1161)" data-id="SaveLocal" data-node="true" id="flowchart-SaveLocal-21" class="node default actionStyle flowchart-label"><rect height="36" width="136" y="-18" x="-68" ry="18" rx="18" style=""></rect><g transform="translate(-56, -10.5)" style="" class="label"><rect></rect><foreignObject height="21" width="112"><div style="display: inline-block; white-space: nowrap;" xmlns="http://www.w3.org/1999/xhtml"><span class="nodeLabel">保存到本地仓库</span></div></foreignObject></g></g></g></g></g></svg>