<svg aria-roledescription="flowchart-v2" role="graphics-document document" viewBox="-8 -8 637.5 371" style="max-width: 637.5px;" xmlns="http://www.w3.org/2000/svg" width="637.5" id="svg" xmlns:xlink="http://www.w3.org/1999/xlink" height="371"><style>#svg{font-family:"trebuchet ms",verdana,arial,sans-serif;font-size:16px;fill:#333;}#svg .error-icon{fill:#552222;}#svg .error-text{fill:#552222;stroke:#552222;}#svg .edge-thickness-normal{stroke-width:2px;}#svg .edge-thickness-thick{stroke-width:3.5px;}#svg .edge-pattern-solid{stroke-dasharray:0;}#svg .edge-pattern-dashed{stroke-dasharray:3;}#svg .edge-pattern-dotted{stroke-dasharray:2;}#svg .marker{fill:#333333;stroke:#333333;}#svg .marker.cross{stroke:#333333;}#svg svg{font-family:"trebuchet ms",verdana,arial,sans-serif;font-size:16px;}#svg .label{font-family:"trebuchet ms",verdana,arial,sans-serif;color:#333;}#svg .cluster-label text{fill:#333;}#svg .cluster-label span,#svg p{color:#333;}#svg .label text,#svg span,#svg p{fill:#333;color:#333;}#svg .node rect,#svg .node circle,#svg .node ellipse,#svg .node polygon,#svg .node path{fill:#ECECFF;stroke:#9370DB;stroke-width:1px;}#svg .flowchart-label text{text-anchor:middle;}#svg .node .katex path{fill:#000;stroke:#000;stroke-width:1px;}#svg .node .label{text-align:center;}#svg .node.clickable{cursor:pointer;}#svg .arrowheadPath{fill:#333333;}#svg .edgePath .path{stroke:#333333;stroke-width:2.0px;}#svg .flowchart-link{stroke:#333333;fill:none;}#svg .edgeLabel{background-color:#e8e8e8;text-align:center;}#svg .edgeLabel rect{opacity:0.5;background-color:#e8e8e8;fill:#e8e8e8;}#svg .labelBkg{background-color:rgba(232, 232, 232, 0.5);}#svg .cluster rect{fill:#ffffde;stroke:#aaaa33;stroke-width:1px;}#svg .cluster text{fill:#333;}#svg .cluster span,#svg p{color:#333;}#svg div.mermaidTooltip{position:absolute;text-align:center;max-width:200px;padding:2px;font-family:"trebuchet ms",verdana,arial,sans-serif;font-size:12px;background:hsl(80, 100%, 96.2745098039%);border:1px solid #aaaa33;border-radius:2px;pointer-events:none;z-index:100;}#svg .flowchartTitleText{text-anchor:middle;font-size:18px;fill:#333;}#svg .today{display:none;}#svg .label foreignObject{overflow:visible;}#svg :root{--mermaid-font-family:"trebuchet ms",verdana,arial,sans-serif;}#svg .parentStyle&gt;*{fill:#4A90E2!important;stroke:none!important;color:#fff!important;}#svg .parentStyle span{fill:#4A90E2!important;stroke:none!important;color:#fff!important;}#svg .parentStyle tspan{fill:#fff!important;}#svg .childStyle&gt;*{fill:#9B59B6!important;stroke:none!important;color:#fff!important;}#svg .childStyle span{fill:#9B59B6!important;stroke:none!important;color:#fff!important;}#svg .childStyle tspan{fill:#fff!important;}#svg .versionStyle&gt;*{fill:#50C878!important;stroke:none!important;color:#fff!important;}#svg .versionStyle span{fill:#50C878!important;stroke:none!important;color:#fff!important;}#svg .versionStyle tspan{fill:#fff!important;}</style><g><marker orient="auto" markerHeight="12" markerWidth="12" markerUnits="userSpaceOnUse" refY="5" refX="6" viewBox="0 0 10 10" class="marker flowchart" id="svg_flowchart-pointEnd"><path style="stroke-width: 1; stroke-dasharray: 1, 0;" class="arrowMarkerPath" d="M 0 0 L 10 5 L 0 10 z"></path></marker><marker orient="auto" markerHeight="12" markerWidth="12" markerUnits="userSpaceOnUse" refY="5" refX="4.5" viewBox="0 0 10 10" class="marker flowchart" id="svg_flowchart-pointStart"><path style="stroke-width: 1; stroke-dasharray: 1, 0;" class="arrowMarkerPath" d="M 0 5 L 10 10 L 10 0 z"></path></marker><marker orient="auto" markerHeight="11" markerWidth="11" markerUnits="userSpaceOnUse" refY="5" refX="11" viewBox="0 0 10 10" class="marker flowchart" id="svg_flowchart-circleEnd"><circle style="stroke-width: 1; stroke-dasharray: 1, 0;" class="arrowMarkerPath" r="5" cy="5" cx="5"></circle></marker><marker orient="auto" markerHeight="11" markerWidth="11" markerUnits="userSpaceOnUse" refY="5" refX="-1" viewBox="0 0 10 10" class="marker flowchart" id="svg_flowchart-circleStart"><circle style="stroke-width: 1; stroke-dasharray: 1, 0;" class="arrowMarkerPath" r="5" cy="5" cx="5"></circle></marker><marker orient="auto" markerHeight="11" markerWidth="11" markerUnits="userSpaceOnUse" refY="5.2" refX="12" viewBox="0 0 11 11" class="marker cross flowchart" id="svg_flowchart-crossEnd"><path style="stroke-width: 2; stroke-dasharray: 1, 0;" class="arrowMarkerPath" d="M 1,1 l 9,9 M 10,1 l -9,9"></path></marker><marker orient="auto" markerHeight="11" markerWidth="11" markerUnits="userSpaceOnUse" refY="5.2" refX="-1" viewBox="0 0 11 11" class="marker cross flowchart" id="svg_flowchart-crossStart"><path style="stroke-width: 2; stroke-dasharray: 1, 0;" class="arrowMarkerPath" d="M 1,1 l 9,9 M 10,1 l -9,9"></path></marker><g class="root"><g class="clusters"></g><g class="edgePaths"><path marker-end="url(#svg_flowchart-pointEnd)" style="fill:none;" class="edge-thickness-normal edge-pattern-solid flowchart-link LS-Parent LE-DM" id="L-Parent-DM-0" d="M113.75,143L113.75,148.917C113.75,154.833,113.75,166.667,113.75,177.783C113.75,188.9,113.75,199.3,113.75,204.5L113.75,209.7"></path><path marker-end="url(#svg_flowchart-pointEnd)" style="fill:none;" class="edge-thickness-normal edge-pattern-solid flowchart-link LS-DM LE-V1" id="L-DM-V1-0" d="M109.222,249L107.602,255.083C105.981,261.167,102.741,273.333,102.495,284.481C102.249,295.628,104.998,305.757,106.373,310.821L107.747,315.885"></path><path marker-end="url(#svg_flowchart-pointEnd)" style="fill:none;" class="edge-thickness-normal edge-pattern-solid flowchart-link LS-DM LE-V2" id="L-DM-V2-0" d="M209.554,249L243.836,255.083C278.119,261.167,346.685,273.333,389.107,284.843C431.53,296.353,447.81,307.207,455.95,312.633L464.09,318.06"></path><path marker-end="url(#svg_flowchart-pointEnd)" style="fill:none;" class="edge-thickness-normal edge-pattern-solid flowchart-link LS-Child1 LE-Parent" id="L-Child1-Parent-0" d="M167.625,36L154.313,41.917C141,47.833,114.375,59.667,103.552,70.706C92.729,81.744,97.707,91.989,100.196,97.111L102.686,102.233"></path><path marker-end="url(#svg_flowchart-pointEnd)" style="fill:none;" class="edge-thickness-normal edge-pattern-solid flowchart-link LS-Child2 LE-Parent" id="L-Child2-Parent-0" d="M370,28.719L342.396,35.849C314.792,42.98,259.583,57.24,222.717,69.838C185.852,82.435,167.328,93.37,158.066,98.838L148.805,104.306"></path><path marker-end="url(#svg_flowchart-pointEnd)" style="fill:none;" class="edge-thickness-normal edge-pattern-solid flowchart-link LS-Child1 LE-UseV1" id="L-Child1-UseV1-0" d="M249.466,36L263.055,41.917C276.644,47.833,303.822,59.667,317.411,74.5C331,89.333,331,107.167,331,125C331,142.833,331,160.667,331,174.617C331,188.567,331,198.633,331,203.667L331,208.7"></path><path marker-end="url(#svg_flowchart-pointEnd)" style="fill:none;" class="edge-thickness-normal edge-pattern-solid flowchart-link LS-Child2 LE-UseV2" id="L-Child2-UseV2-0" d="M450.696,36L463.58,41.917C476.464,47.833,502.232,59.667,515.116,74.5C528,89.333,528,107.167,528,125C528,142.833,528,160.667,528,174.617C528,188.567,528,198.633,528,203.667L528,208.7"></path><path marker-end="url(#svg_flowchart-pointEnd)" style="fill:none;stroke-width:2px;stroke-dasharray:3;" class="edge-thickness-normal edge-pattern-dotted flowchart-link LS-UseV1 LE-V1" id="L-UseV1-V1-0" d="M326.206,250L324.63,255.917C323.054,261.833,319.902,273.667,296.303,285.279C272.705,296.891,228.66,308.282,206.637,313.977L184.615,319.673"></path><path marker-end="url(#svg_flowchart-pointEnd)" style="fill:none;stroke-width:2px;stroke-dasharray:3;" class="edge-thickness-normal edge-pattern-dotted flowchart-link LS-UseV2 LE-V2" id="L-UseV2-V2-0" d="M528,250L528,255.917C528,261.833,528,273.667,524.648,284.759C521.297,295.85,514.594,306.201,511.242,311.376L507.891,316.551"></path></g><g class="edgeLabels"><g transform="translate(113.75, 178.5)" class="edgeLabel"><g transform="translate(-32, -10.5)" class="label"><foreignObject height="21" width="64"><div style="display: inline-block; white-space: nowrap;" xmlns="http://www.w3.org/1999/xhtml"><span class="edgeLabel">定义版本</span></div></foreignObject></g></g><g transform="translate(99.5, 285.5)" class="edgeLabel"><g transform="translate(-16, -10.5)" class="label"><foreignObject height="21" width="32"><div style="display: inline-block; white-space: nowrap;" xmlns="http://www.w3.org/1999/xhtml"><span class="edgeLabel">锁定</span></div></foreignObject></g></g><g transform="translate(415.25, 285.5)" class="edgeLabel"><g transform="translate(-16, -10.5)" class="label"><foreignObject height="21" width="32"><div style="display: inline-block; white-space: nowrap;" xmlns="http://www.w3.org/1999/xhtml"><span class="edgeLabel">锁定</span></div></foreignObject></g></g><g transform="translate(87.75, 71.5)" class="edgeLabel"><g transform="translate(-16, -10.5)" class="label"><foreignObject height="21" width="32"><div style="display: inline-block; white-space: nowrap;" xmlns="http://www.w3.org/1999/xhtml"><span class="edgeLabel">继承</span></div></foreignObject></g></g><g transform="translate(204.375, 71.5)" class="edgeLabel"><g transform="translate(-16, -10.5)" class="label"><foreignObject height="21" width="32"><div style="display: inline-block; white-space: nowrap;" xmlns="http://www.w3.org/1999/xhtml"><span class="edgeLabel">继承</span></div></foreignObject></g></g><g transform="translate(331, 125)" class="edgeLabel"><g transform="translate(-56, -10.5)" class="label"><foreignObject height="21" width="112"><div style="display: inline-block; white-space: nowrap;" xmlns="http://www.w3.org/1999/xhtml"><span class="edgeLabel">引用不指定版本</span></div></foreignObject></g></g><g transform="translate(528, 125)" class="edgeLabel"><g transform="translate(-56, -10.5)" class="label"><foreignObject height="21" width="112"><div style="display: inline-block; white-space: nowrap;" xmlns="http://www.w3.org/1999/xhtml"><span class="edgeLabel">引用不指定版本</span></div></foreignObject></g></g><g transform="translate(316.75, 285.5)" class="edgeLabel"><g transform="translate(-32, -10.5)" class="label"><foreignObject height="21" width="64"><div style="display: inline-block; white-space: nowrap;" xmlns="http://www.w3.org/1999/xhtml"><span class="edgeLabel">自动使用</span></div></foreignObject></g></g><g transform="translate(528, 285.5)" class="edgeLabel"><g transform="translate(-32, -10.5)" class="label"><foreignObject height="21" width="64"><div style="display: inline-block; white-space: nowrap;" xmlns="http://www.w3.org/1999/xhtml"><span class="edgeLabel">自动使用</span></div></foreignObject></g></g></g><g class="nodes"><g transform="translate(113.75, 125)" data-id="Parent" data-node="true" id="flowchart-Parent-0" class="node default parentStyle flowchart-label"><rect height="36" width="77" y="-18" x="-38.5" ry="18" rx="18" style=""></rect><g transform="translate(-26.5, -10.5)" style="" class="label"><rect></rect><foreignObject height="21" width="53"><div style="display: inline-block; white-space: nowrap;" xmlns="http://www.w3.org/1999/xhtml"><span class="nodeLabel">父POM</span></div></foreignObject></g></g><g transform="translate(208.125, 18)" data-id="Child1" data-node="true" id="flowchart-Child1-1" class="node default childStyle flowchart-label"><rect height="36" width="83" y="-18" x="-41.5" ry="18" rx="18" style=""></rect><g transform="translate(-29.5, -10.5)" style="" class="label"><rect></rect><foreignObject height="21" width="59"><div style="display: inline-block; white-space: nowrap;" xmlns="http://www.w3.org/1999/xhtml"><span class="nodeLabel">子模块A</span></div></foreignObject></g></g><g transform="translate(411.5, 18)" data-id="Child2" data-node="true" id="flowchart-Child2-2" class="node default childStyle flowchart-label"><rect height="36" width="83" y="-18" x="-41.5" ry="18" rx="18" style=""></rect><g transform="translate(-29.5, -10.5)" style="" class="label"><rect></rect><foreignObject height="21" width="59"><div style="display: inline-block; white-space: nowrap;" xmlns="http://www.w3.org/1999/xhtml"><span class="nodeLabel">子模块B</span></div></foreignObject></g></g><g transform="translate(113.75, 232)" data-id="DM" data-node="true" id="flowchart-DM-4" class="node default parentStyle flowchart-label"><rect height="34" width="227.5" y="-17" x="-113.75" ry="17" rx="17" style=""></rect><g transform="translate(-102, -9.5)" style="" class="label"><rect></rect><foreignObject height="19" width="204"><div style="display: inline-block; white-space: nowrap;" xmlns="http://www.w3.org/1999/xhtml"><span class="nodeLabel">dependencyManagement</span></div></foreignObject></g></g><g transform="translate(113.75, 338)" data-id="V1" data-node="true" id="flowchart-V1-6" class="node default versionStyle flowchart-label"><rect height="34" width="141.5" y="-17" x="-70.75" ry="17" rx="17" style=""></rect><g transform="translate(-59, -9.5)" style="" class="label"><rect></rect><foreignObject height="19" width="118"><div style="display: inline-block; white-space: nowrap;" xmlns="http://www.w3.org/1999/xhtml"><span class="nodeLabel">Guava 31.1-jre</span></div></foreignObject></g></g><g transform="translate(494, 338)" data-id="V2" data-node="true" id="flowchart-V2-8" class="node default versionStyle flowchart-label"><rect height="34" width="209.5" y="-17" x="-104.75" ry="17" rx="17" style=""></rect><g transform="translate(-93, -9.5)" style="" class="label"><rect></rect><foreignObject height="19" width="186"><div style="display: inline-block; white-space: nowrap;" xmlns="http://www.w3.org/1999/xhtml"><span class="nodeLabel">Commons-lang3 3.12.0</span></div></foreignObject></g></g><g transform="translate(331, 232)" data-id="UseV1" data-node="true" id="flowchart-UseV1-14" class="node default childStyle flowchart-label"><rect height="36" width="107" y="-18" x="-53.5" ry="18" rx="18" style=""></rect><g transform="translate(-41.5, -10.5)" style="" class="label"><rect></rect><foreignObject height="21" width="83"><div style="display: inline-block; white-space: nowrap;" xmlns="http://www.w3.org/1999/xhtml"><span class="nodeLabel">使用Guava</span></div></foreignObject></g></g><g transform="translate(528, 232)" data-id="UseV2" data-node="true" id="flowchart-UseV2-16" class="node default childStyle flowchart-label"><rect height="36" width="187" y="-18" x="-93.5" ry="18" rx="18" style=""></rect><g transform="translate(-81.5, -10.5)" style="" class="label"><rect></rect><foreignObject height="21" width="163"><div style="display: inline-block; white-space: nowrap;" xmlns="http://www.w3.org/1999/xhtml"><span class="nodeLabel">使用Commons-lang3</span></div></foreignObject></g></g></g></g></g></svg>