<svg aria-roledescription="flowchart-v2" role="graphics-document document" viewBox="-8 -8 251 495" style="max-width: 251px;" xmlns="http://www.w3.org/2000/svg" width="251" id="svg" xmlns:xlink="http://www.w3.org/1999/xlink" height="495"><style>#svg{font-family:"trebuchet ms",verdana,arial,sans-serif;font-size:16px;fill:#333;}#svg .error-icon{fill:#552222;}#svg .error-text{fill:#552222;stroke:#552222;}#svg .edge-thickness-normal{stroke-width:2px;}#svg .edge-thickness-thick{stroke-width:3.5px;}#svg .edge-pattern-solid{stroke-dasharray:0;}#svg .edge-pattern-dashed{stroke-dasharray:3;}#svg .edge-pattern-dotted{stroke-dasharray:2;}#svg .marker{fill:#333333;stroke:#333333;}#svg .marker.cross{stroke:#333333;}#svg svg{font-family:"trebuchet ms",verdana,arial,sans-serif;font-size:16px;}#svg .label{font-family:"trebuchet ms",verdana,arial,sans-serif;color:#333;}#svg .cluster-label text{fill:#333;}#svg .cluster-label span,#svg p{color:#333;}#svg .label text,#svg span,#svg p{fill:#333;color:#333;}#svg .node rect,#svg .node circle,#svg .node ellipse,#svg .node polygon,#svg .node path{fill:#ECECFF;stroke:#9370DB;stroke-width:1px;}#svg .flowchart-label text{text-anchor:middle;}#svg .node .katex path{fill:#000;stroke:#000;stroke-width:1px;}#svg .node .label{text-align:center;}#svg .node.clickable{cursor:pointer;}#svg .arrowheadPath{fill:#333333;}#svg .edgePath .path{stroke:#333333;stroke-width:2.0px;}#svg .flowchart-link{stroke:#333333;fill:none;}#svg .edgeLabel{background-color:#e8e8e8;text-align:center;}#svg .edgeLabel rect{opacity:0.5;background-color:#e8e8e8;fill:#e8e8e8;}#svg .labelBkg{background-color:rgba(232, 232, 232, 0.5);}#svg .cluster rect{fill:#ffffde;stroke:#aaaa33;stroke-width:1px;}#svg .cluster text{fill:#333;}#svg .cluster span,#svg p{color:#333;}#svg div.mermaidTooltip{position:absolute;text-align:center;max-width:200px;padding:2px;font-family:"trebuchet ms",verdana,arial,sans-serif;font-size:12px;background:hsl(80, 100%, 96.2745098039%);border:1px solid #aaaa33;border-radius:2px;pointer-events:none;z-index:100;}#svg .flowchartTitleText{text-anchor:middle;font-size:18px;fill:#333;}#svg .today{display:none;}#svg .label foreignObject{overflow:visible;}#svg :root{--mermaid-font-family:"trebuchet ms",verdana,arial,sans-serif;}#svg .hostStyle&gt;*{fill:#34495E!important;stroke:none!important;color:#fff!important;}#svg .hostStyle span{fill:#34495E!important;stroke:none!important;color:#fff!important;}#svg .hostStyle tspan{fill:#fff!important;}#svg .netStyle&gt;*{fill:#3498DB!important;stroke:none!important;color:#fff!important;}#svg .netStyle span{fill:#3498DB!important;stroke:none!important;color:#fff!important;}#svg .netStyle tspan{fill:#fff!important;}#svg .containerStyle&gt;*{fill:#2ECC71!important;stroke:none!important;color:#fff!important;}#svg .containerStyle span{fill:#2ECC71!important;stroke:none!important;color:#fff!important;}#svg .containerStyle tspan{fill:#fff!important;}</style><g><marker orient="auto" markerHeight="12" markerWidth="12" markerUnits="userSpaceOnUse" refY="5" refX="6" viewBox="0 0 10 10" class="marker flowchart" id="svg_flowchart-pointEnd"><path style="stroke-width: 1; stroke-dasharray: 1, 0;" class="arrowMarkerPath" d="M 0 0 L 10 5 L 0 10 z"></path></marker><marker orient="auto" markerHeight="12" markerWidth="12" markerUnits="userSpaceOnUse" refY="5" refX="4.5" viewBox="0 0 10 10" class="marker flowchart" id="svg_flowchart-pointStart"><path style="stroke-width: 1; stroke-dasharray: 1, 0;" class="arrowMarkerPath" d="M 0 5 L 10 10 L 10 0 z"></path></marker><marker orient="auto" markerHeight="11" markerWidth="11" markerUnits="userSpaceOnUse" refY="5" refX="11" viewBox="0 0 10 10" class="marker flowchart" id="svg_flowchart-circleEnd"><circle style="stroke-width: 1; stroke-dasharray: 1, 0;" class="arrowMarkerPath" r="5" cy="5" cx="5"></circle></marker><marker orient="auto" markerHeight="11" markerWidth="11" markerUnits="userSpaceOnUse" refY="5" refX="-1" viewBox="0 0 10 10" class="marker flowchart" id="svg_flowchart-circleStart"><circle style="stroke-width: 1; stroke-dasharray: 1, 0;" class="arrowMarkerPath" r="5" cy="5" cx="5"></circle></marker><marker orient="auto" markerHeight="11" markerWidth="11" markerUnits="userSpaceOnUse" refY="5.2" refX="12" viewBox="0 0 11 11" class="marker cross flowchart" id="svg_flowchart-crossEnd"><path style="stroke-width: 2; stroke-dasharray: 1, 0;" class="arrowMarkerPath" d="M 1,1 l 9,9 M 10,1 l -9,9"></path></marker><marker orient="auto" markerHeight="11" markerWidth="11" markerUnits="userSpaceOnUse" refY="5.2" refX="-1" viewBox="0 0 11 11" class="marker cross flowchart" id="svg_flowchart-crossStart"><path style="stroke-width: 2; stroke-dasharray: 1, 0;" class="arrowMarkerPath" d="M 1,1 l 9,9 M 10,1 l -9,9"></path></marker><g class="root"><g class="clusters"></g><g class="edgePaths"><path marker-end="url(#svg_flowchart-pointEnd)" style="fill:none;" class="edge-thickness-normal edge-pattern-solid flowchart-link LS-Host LE-Network" id="L-Host-Network-0" d="M102.911,36L95.093,40.167C87.274,44.333,71.637,52.667,63.819,60.117C56,67.567,56,74.133,56,77.417L56,80.7"></path><path marker-end="url(#svg_flowchart-pointEnd)" style="fill:none;" class="edge-thickness-normal edge-pattern-solid flowchart-link LS-Network LE-Container1" id="L-Network-Container1-0" d="M85.564,122L92.407,126.167C99.251,130.333,112.938,138.667,123.314,146.375C133.691,154.083,140.757,161.165,144.289,164.707L147.822,168.248"></path><path marker-end="url(#svg_flowchart-pointEnd)" style="fill:none;" class="edge-thickness-normal edge-pattern-solid flowchart-link LS-Network LE-Container2" id="L-Network-Container2-0" d="M64.032,122L65.891,126.167C67.75,130.333,71.469,138.667,73.328,151.583C75.188,164.5,75.188,182,75.188,201.25C75.188,220.5,75.188,241.5,80.346,257.285C85.505,273.069,95.823,283.638,100.981,288.923L106.14,294.207"></path><path marker-end="url(#svg_flowchart-pointEnd)" style="fill:none;" class="edge-thickness-normal edge-pattern-solid flowchart-link LS-Network LE-Container3" id="L-Network-Container3-0" d="M39.256,122L35.38,126.167C31.504,130.333,23.752,138.667,19.876,151.583C16,164.5,16,182,16,201.25C16,220.5,16,241.5,16,262.5C16,283.5,16,304.5,16,325.5C16,346.5,16,367.5,22.955,383.376C29.91,399.253,43.821,410.006,50.776,415.382L57.731,420.759"></path><path marker-end="url(#svg_flowchart-pointEnd)" style="fill:none;stroke-width:2px;stroke-dasharray:3;" class="edge-thickness-normal edge-pattern-dotted flowchart-link LS-Container1 LE-Container2" id="L-Container1-Container2-0" d="M179,227L179,232.917C179,238.833,179,250.667,175.519,261.767C172.037,272.867,165.075,283.233,161.594,288.417L158.112,293.6"></path><path marker-end="url(#svg_flowchart-pointEnd)" style="fill:none;stroke-width:2px;stroke-dasharray:3;" class="edge-thickness-normal edge-pattern-dotted flowchart-link LS-Container2 LE-Container3" id="L-Container2-Container3-0" d="M136.688,353L136.688,358.917C136.688,364.833,136.688,376.667,133.474,387.75C130.26,398.833,123.833,409.166,120.619,414.333L117.405,419.5"></path><path marker-end="url(#svg_flowchart-pointEnd)" style="fill:none;stroke-width:2px;stroke-dasharray:3;" class="edge-thickness-normal edge-pattern-dotted flowchart-link LS-Host LE-Container1" id="L-Host-Container1-0" d="M158.219,36L163.204,40.167C168.188,44.333,178.156,52.667,183.141,64C188.125,75.333,188.125,89.667,188.125,104C188.125,118.333,188.125,132.667,187.552,143.13C186.979,153.593,185.833,160.186,185.26,163.482L184.687,166.778"></path></g><g class="edgeLabels"><g class="edgeLabel"><g transform="translate(0, 0)" class="label"><foreignObject height="0" width="0"><div style="display: inline-block; white-space: nowrap;" xmlns="http://www.w3.org/1999/xhtml"><span class="edgeLabel"></span></div></foreignObject></g></g><g class="edgeLabel"><g transform="translate(0, 0)" class="label"><foreignObject height="0" width="0"><div style="display: inline-block; white-space: nowrap;" xmlns="http://www.w3.org/1999/xhtml"><span class="edgeLabel"></span></div></foreignObject></g></g><g class="edgeLabel"><g transform="translate(0, 0)" class="label"><foreignObject height="0" width="0"><div style="display: inline-block; white-space: nowrap;" xmlns="http://www.w3.org/1999/xhtml"><span class="edgeLabel"></span></div></foreignObject></g></g><g class="edgeLabel"><g transform="translate(0, 0)" class="label"><foreignObject height="0" width="0"><div style="display: inline-block; white-space: nowrap;" xmlns="http://www.w3.org/1999/xhtml"><span class="edgeLabel"></span></div></foreignObject></g></g><g transform="translate(179, 262.5)" class="edgeLabel"><g transform="translate(-56, -10.5)" class="label"><foreignObject height="21" width="112"><div style="display: inline-block; white-space: nowrap;" xmlns="http://www.w3.org/1999/xhtml"><span class="edgeLabel">通过服务名通信</span></div></foreignObject></g></g><g transform="translate(136.6875, 388.5)" class="edgeLabel"><g transform="translate(-56, -10.5)" class="label"><foreignObject height="21" width="112"><div style="display: inline-block; white-space: nowrap;" xmlns="http://www.w3.org/1999/xhtml"><span class="edgeLabel">通过服务名通信</span></div></foreignObject></g></g><g transform="translate(188.125, 104)" class="edgeLabel"><g transform="translate(-32, -10.5)" class="label"><foreignObject height="21" width="64"><div style="display: inline-block; white-space: nowrap;" xmlns="http://www.w3.org/1999/xhtml"><span class="edgeLabel">端口映射</span></div></foreignObject></g></g></g><g class="nodes"><g transform="translate(136.6875, 18)" data-id="Host" data-node="true" id="flowchart-Host-0" class="node default hostStyle flowchart-label"><rect height="36" width="72" y="-18" x="-36" ry="18" rx="18" style=""></rect><g transform="translate(-24, -10.5)" style="" class="label"><rect></rect><foreignObject height="21" width="48"><div style="display: inline-block; white-space: nowrap;" xmlns="http://www.w3.org/1999/xhtml"><span class="nodeLabel">宿主机</span></div></foreignObject></g></g><g transform="translate(56, 104)" data-id="Network" data-node="true" id="flowchart-Network-2" class="node default netStyle flowchart-label"><rect height="36" width="112" y="-18" x="-56" ry="18" rx="18" style=""></rect><g transform="translate(-44, -10.5)" style="" class="label"><rect></rect><foreignObject height="21" width="88"><div style="display: inline-block; white-space: nowrap;" xmlns="http://www.w3.org/1999/xhtml"><span class="nodeLabel">Docker网络</span></div></foreignObject></g></g><g transform="translate(179, 199.5)" data-id="Container1" data-node="true" id="flowchart-Container1-4" class="node default containerStyle flowchart-label"><rect height="55" width="95.75" y="-27.5" x="-47.875" ry="27.5" rx="27.5" style=""></rect><g transform="translate(-33.5, -20)" style="" class="label"><rect></rect><foreignObject height="40" width="67"><div style="display: inline-block; white-space: nowrap;" xmlns="http://www.w3.org/1999/xhtml"><span class="nodeLabel">Web容器<br/>:80</span></div></foreignObject></g></g><g transform="translate(136.6875, 325.5)" data-id="Container2" data-node="true" id="flowchart-Container2-6" class="node default containerStyle flowchart-label"><rect height="55" width="86.75" y="-27.5" x="-43.375" ry="27.5" rx="27.5" style=""></rect><g transform="translate(-29, -20)" style="" class="label"><rect></rect><foreignObject height="40" width="58"><div style="display: inline-block; white-space: nowrap;" xmlns="http://www.w3.org/1999/xhtml"><span class="nodeLabel">API容器<br/>:8080</span></div></foreignObject></g></g><g transform="translate(97.5, 451.5)" data-id="Container3" data-node="true" id="flowchart-Container3-8" class="node default containerStyle flowchart-label"><rect height="55" width="108.75" y="-27.5" x="-54.375" ry="27.5" rx="27.5" style=""></rect><g transform="translate(-40, -20)" style="" class="label"><rect></rect><foreignObject height="40" width="80"><div style="display: inline-block; white-space: nowrap;" xmlns="http://www.w3.org/1999/xhtml"><span class="nodeLabel">数据库容器<br/>:5432</span></div></foreignObject></g></g></g></g></g></svg>