<?xml version="1.0" standalone="no"?><!DOCTYPE svg PUBLIC "-//W3C//DTD SVG 1.1//EN" "http://www.w3.org/Graphics/SVG/1.1/DTD/svg11.dtd"><svg t="1777127425418" class="icon" viewBox="0 0 1024 1024" version="1.1" xmlns="http://www.w3.org/2000/svg" p-id="21941" xmlns:xlink="http://www.w3.org/1999/xlink" width="200" height="200"><path d="M512 512m-512 0a512 512 0 1 0 1024 0 512 512 0 1 0-1024 0Z" fill="#7F8CFF" p-id="21942"></path><path d="M294.034286 351.122286l329.654857-58.112a36.571429 36.571429 0 0 1 42.368 29.659428l66.980571 379.885715a36.571429 36.571429 0 0 1-29.659428 42.349714l-329.673143 58.148571a36.571429 36.571429 0 0 1-42.368-29.677714L264.356571 393.508571a36.571429 36.571429 0 0 1 29.659429-42.368z" fill="#B2BAFF" p-id="21943"></path><path d="M346.477714 288.731429l329.691429-58.130286a36.571429 36.571429 0 0 1 42.349714 29.659428l64.036572 363.154286a36.571429 36.571429 0 0 1-29.677715 42.368l-329.654857 58.112a36.571429 36.571429 0 0 1-42.368-29.659428l-64.036571-363.154286a36.571429 36.571429 0 0 1 29.659428-42.349714z" fill="#FFFFFF" p-id="21944"></path><path d="M438.436571 441.234286l49.590858 43.830857 29.878857-57.837714 38.454857-6.765715 23.899428 135.570286-39.131428 6.893714-13.568-76.964571-28.763429 56.32-47.817143-42.806857 13.568 76.964571-39.222857 6.912-23.917714-135.588571 37.028571-6.509715z m227.108572-39.917715l12.288 69.851429 37.193143-6.546286-45.293715 75.629715-68.425142-55.588572 37.156571-6.546286-12.288-69.851428 39.350857-6.948572z" fill="#6871F7" p-id="21945"></path></svg>