<svg aria-roledescription="flowchart-v2" role="graphics-document document" viewBox="-8 -8 520.5 310" style="max-width: 520.5px;" xmlns="http://www.w3.org/2000/svg" width="520.5" id="svg" xmlns:xlink="http://www.w3.org/1999/xlink" height="310"><style>#svg{font-family:"trebuchet ms",verdana,arial,sans-serif;font-size:16px;fill:#333;}#svg .error-icon{fill:#552222;}#svg .error-text{fill:#552222;stroke:#552222;}#svg .edge-thickness-normal{stroke-width:2px;}#svg .edge-thickness-thick{stroke-width:3.5px;}#svg .edge-pattern-solid{stroke-dasharray:0;}#svg .edge-pattern-dashed{stroke-dasharray:3;}#svg .edge-pattern-dotted{stroke-dasharray:2;}#svg .marker{fill:#333333;stroke:#333333;}#svg .marker.cross{stroke:#333333;}#svg svg{font-family:"trebuchet ms",verdana,arial,sans-serif;font-size:16px;}#svg .label{font-family:"trebuchet ms",verdana,arial,sans-serif;color:#333;}#svg .cluster-label text{fill:#333;}#svg .cluster-label span,#svg p{color:#333;}#svg .label text,#svg span,#svg p{fill:#333;color:#333;}#svg .node rect,#svg .node circle,#svg .node ellipse,#svg .node polygon,#svg .node path{fill:#ECECFF;stroke:#9370DB;stroke-width:1px;}#svg .flowchart-label text{text-anchor:middle;}#svg .node .katex path{fill:#000;stroke:#000;stroke-width:1px;}#svg .node .label{text-align:center;}#svg .node.clickable{cursor:pointer;}#svg .arrowheadPath{fill:#333333;}#svg .edgePath .path{stroke:#333333;stroke-width:2.0px;}#svg .flowchart-link{stroke:#333333;fill:none;}#svg .edgeLabel{background-color:#e8e8e8;text-align:center;}#svg .edgeLabel rect{opacity:0.5;background-color:#e8e8e8;fill:#e8e8e8;}#svg .labelBkg{background-color:rgba(232, 232, 232, 0.5);}#svg .cluster rect{fill:#ffffde;stroke:#aaaa33;stroke-width:1px;}#svg .cluster text{fill:#333;}#svg .cluster span,#svg p{color:#333;}#svg div.mermaidTooltip{position:absolute;text-align:center;max-width:200px;padding:2px;font-family:"trebuchet ms",verdana,arial,sans-serif;font-size:12px;background:hsl(80, 100%, 96.2745098039%);border:1px solid #aaaa33;border-radius:2px;pointer-events:none;z-index:100;}#svg .flowchartTitleText{text-anchor:middle;font-size:18px;fill:#333;}#svg .today{display:none;}#svg .label foreignObject{overflow:visible;}#svg :root{--mermaid-font-family:"trebuchet ms",verdana,arial,sans-serif;}#svg .versionStyle&gt;*{fill:#4A90E2!important;stroke:none!important;color:#fff!important;}#svg .versionStyle span{fill:#4A90E2!important;stroke:none!important;color:#fff!important;}#svg .versionStyle tspan{fill:#fff!important;}#svg .fileStyle&gt;*{fill:#50C878!important;stroke:none!important;color:#fff!important;}#svg .fileStyle span{fill:#50C878!important;stroke:none!important;color:#fff!important;}#svg .fileStyle tspan{fill:#fff!important;}#svg .pointerStyle&gt;*{fill:#9B59B6!important;stroke:none!important;color:#fff!important;}#svg .pointerStyle span{fill:#9B59B6!important;stroke:none!important;color:#fff!important;}#svg .pointerStyle tspan{fill:#fff!important;}</style><g><marker orient="auto" markerHeight="12" markerWidth="12" markerUnits="userSpaceOnUse" refY="5" refX="6" viewBox="0 0 10 10" class="marker flowchart" id="svg_flowchart-pointEnd"><path style="stroke-width: 1; stroke-dasharray: 1, 0;" class="arrowMarkerPath" d="M 0 0 L 10 5 L 0 10 z"></path></marker><marker orient="auto" markerHeight="12" markerWidth="12" markerUnits="userSpaceOnUse" refY="5" refX="4.5" viewBox="0 0 10 10" class="marker flowchart" id="svg_flowchart-pointStart"><path style="stroke-width: 1; stroke-dasharray: 1, 0;" class="arrowMarkerPath" d="M 0 5 L 10 10 L 10 0 z"></path></marker><marker orient="auto" markerHeight="11" markerWidth="11" markerUnits="userSpaceOnUse" refY="5" refX="11" viewBox="0 0 10 10" class="marker flowchart" id="svg_flowchart-circleEnd"><circle style="stroke-width: 1; stroke-dasharray: 1, 0;" class="arrowMarkerPath" r="5" cy="5" cx="5"></circle></marker><marker orient="auto" markerHeight="11" markerWidth="11" markerUnits="userSpaceOnUse" refY="5" refX="-1" viewBox="0 0 10 10" class="marker flowchart" id="svg_flowchart-circleStart"><circle style="stroke-width: 1; stroke-dasharray: 1, 0;" class="arrowMarkerPath" r="5" cy="5" cx="5"></circle></marker><marker orient="auto" markerHeight="11" markerWidth="11" markerUnits="userSpaceOnUse" refY="5.2" refX="12" viewBox="0 0 11 11" class="marker cross flowchart" id="svg_flowchart-crossEnd"><path style="stroke-width: 2; stroke-dasharray: 1, 0;" class="arrowMarkerPath" d="M 1,1 l 9,9 M 10,1 l -9,9"></path></marker><marker orient="auto" markerHeight="11" markerWidth="11" markerUnits="userSpaceOnUse" refY="5.2" refX="-1" viewBox="0 0 11 11" class="marker cross flowchart" id="svg_flowchart-crossStart"><path style="stroke-width: 2; stroke-dasharray: 1, 0;" class="arrowMarkerPath" d="M 1,1 l 9,9 M 10,1 l -9,9"></path></marker><g class="root"><g class="clusters"></g><g class="edgePaths"><path marker-end="url(#svg_flowchart-pointEnd)" style="fill:none;" class="edge-thickness-normal edge-pattern-solid flowchart-link LS-V1 LE-F1A" id="L-V1-F1A-0" d="M302.198,208L304.79,212.167C307.382,216.333,312.566,224.667,315.158,232.117C317.75,239.567,317.75,246.133,317.75,249.417L317.75,252.7"></path><path marker-end="url(#svg_flowchart-pointEnd)" style="fill:none;" class="edge-thickness-normal edge-pattern-solid flowchart-link LS-V1 LE-F1B" id="L-V1-F1B-0" d="M242,197.936L205.917,203.78C169.833,209.624,97.667,221.312,62.352,230.462C27.038,239.613,28.576,246.225,29.345,249.531L30.113,252.838"></path><path marker-end="url(#svg_flowchart-pointEnd)" style="fill:none;" class="edge-thickness-normal edge-pattern-solid flowchart-link LS-V1 LE-F1C" id="L-V1-F1C-0" d="M340,204.657L355.792,209.381C371.583,214.105,403.167,223.552,418.958,231.56C434.75,239.567,434.75,246.133,434.75,249.417L434.75,252.7"></path><path marker-end="url(#svg_flowchart-pointEnd)" style="fill:none;" class="edge-thickness-normal edge-pattern-solid flowchart-link LS-V2 LE-F2A" id="L-V2-F2A-0" d="M89.14,122L91.95,126.167C94.76,130.333,100.38,138.667,107.411,146.427C114.442,154.188,122.883,161.376,127.104,164.97L131.325,168.564"></path><path marker-end="url(#svg_flowchart-pointEnd)" style="fill:none;" class="edge-thickness-normal edge-pattern-solid flowchart-link LS-V2 LE-Link1" id="L-V2-Link1-0" d="M59.628,122L55.607,126.167C51.585,130.333,43.543,138.667,39.587,146.2C35.632,153.734,35.764,160.467,35.83,163.834L35.896,167.201"></path><path marker-end="url(#svg_flowchart-pointEnd)" style="fill:none;stroke-width:2px;stroke-dasharray:3;" class="edge-thickness-normal edge-pattern-dotted flowchart-link LS-Link1 LE-F1B" id="L-Link1-F1B-0" d="M40.186,208.5L41.072,212.583C41.957,216.667,43.729,224.833,43.845,232.223C43.962,239.613,42.424,246.225,41.655,249.531L40.887,252.838"></path><path marker-end="url(#svg_flowchart-pointEnd)" style="fill:none;" class="edge-thickness-normal edge-pattern-solid flowchart-link LS-V2 LE-F2C" id="L-V2-F2C-0" d="M126,112.752L157.958,118.46C189.917,124.168,253.833,135.584,304.234,146.535C354.634,157.486,391.518,167.972,409.96,173.215L428.402,178.458"></path><path marker-end="url(#svg_flowchart-pointEnd)" style="fill:none;" class="edge-thickness-normal edge-pattern-solid flowchart-link LS-V3 LE-Link2" id="L-V3-Link2-0" d="M324.5,31.006L305.667,36.005C286.833,41.004,249.167,51.002,230.399,59.368C211.632,67.734,211.764,74.467,211.83,77.834L211.896,81.201"></path><path marker-end="url(#svg_flowchart-pointEnd)" style="fill:none;stroke-width:2px;stroke-dasharray:3;" class="edge-thickness-normal edge-pattern-dotted flowchart-link LS-Link2 LE-F2A" id="L-Link2-F2A-0" d="M204.988,122.5L203.282,126.583C201.576,130.667,198.163,138.833,193.337,146.423C188.511,154.013,182.273,161.027,179.153,164.533L176.034,168.04"></path><path marker-end="url(#svg_flowchart-pointEnd)" style="fill:none;" class="edge-thickness-normal edge-pattern-solid flowchart-link LS-V3 LE-F3B" id="L-V3-F3B-0" d="M357.174,36L353.395,40.167C349.616,44.333,342.058,52.667,338.279,60.117C334.5,67.567,334.5,74.133,334.5,77.417L334.5,80.7"></path><path marker-end="url(#svg_flowchart-pointEnd)" style="fill:none;" class="edge-thickness-normal edge-pattern-solid flowchart-link LS-V3 LE-Link3" id="L-V3-Link3-0" d="M413.477,36L422.731,40.167C431.984,44.333,450.492,52.667,459.812,60.2C469.132,67.734,469.264,74.467,469.33,77.834L469.396,81.201"></path><path marker-end="url(#svg_flowchart-pointEnd)" style="fill:none;stroke-width:2px;stroke-dasharray:3;" class="edge-thickness-normal edge-pattern-dotted flowchart-link LS-Link3 LE-F2C" id="L-Link3-F2C-0" d="M469.5,122.5L469.417,126.583C469.333,130.667,469.167,138.833,469.083,146.2C469,153.567,469,160.133,469,163.417L469,166.7"></path></g><g class="edgeLabels"><g class="edgeLabel"><g transform="translate(0, 0)" class="label"><foreignObject height="0" width="0"><div style="display: inline-block; white-space: nowrap;" xmlns="http://www.w3.org/1999/xhtml"><span class="edgeLabel"></span></div></foreignObject></g></g><g class="edgeLabel"><g transform="translate(0, 0)" class="label"><foreignObject height="0" width="0"><div style="display: inline-block; white-space: nowrap;" xmlns="http://www.w3.org/1999/xhtml"><span class="edgeLabel"></span></div></foreignObject></g></g><g class="edgeLabel"><g transform="translate(0, 0)" class="label"><foreignObject height="0" width="0"><div style="display: inline-block; white-space: nowrap;" xmlns="http://www.w3.org/1999/xhtml"><span class="edgeLabel"></span></div></foreignObject></g></g><g class="edgeLabel"><g transform="translate(0, 0)" class="label"><foreignObject height="0" width="0"><div style="display: inline-block; white-space: nowrap;" xmlns="http://www.w3.org/1999/xhtml"><span class="edgeLabel"></span></div></foreignObject></g></g><g class="edgeLabel"><g transform="translate(0, 0)" class="label"><foreignObject height="0" width="0"><div style="display: inline-block; white-space: nowrap;" xmlns="http://www.w3.org/1999/xhtml"><span class="edgeLabel"></span></div></foreignObject></g></g><g class="edgeLabel"><g transform="translate(0, 0)" class="label"><foreignObject height="0" width="0"><div style="display: inline-block; white-space: nowrap;" xmlns="http://www.w3.org/1999/xhtml"><span class="edgeLabel"></span></div></foreignObject></g></g><g class="edgeLabel"><g transform="translate(0, 0)" class="label"><foreignObject height="0" width="0"><div style="display: inline-block; white-space: nowrap;" xmlns="http://www.w3.org/1999/xhtml"><span class="edgeLabel"></span></div></foreignObject></g></g><g class="edgeLabel"><g transform="translate(0, 0)" class="label"><foreignObject height="0" width="0"><div style="display: inline-block; white-space: nowrap;" xmlns="http://www.w3.org/1999/xhtml"><span class="edgeLabel"></span></div></foreignObject></g></g><g class="edgeLabel"><g transform="translate(0, 0)" class="label"><foreignObject height="0" width="0"><div style="display: inline-block; white-space: nowrap;" xmlns="http://www.w3.org/1999/xhtml"><span class="edgeLabel"></span></div></foreignObject></g></g><g class="edgeLabel"><g transform="translate(0, 0)" class="label"><foreignObject height="0" width="0"><div style="display: inline-block; white-space: nowrap;" xmlns="http://www.w3.org/1999/xhtml"><span class="edgeLabel"></span></div></foreignObject></g></g><g class="edgeLabel"><g transform="translate(0, 0)" class="label"><foreignObject height="0" width="0"><div style="display: inline-block; white-space: nowrap;" xmlns="http://www.w3.org/1999/xhtml"><span class="edgeLabel"></span></div></foreignObject></g></g><g class="edgeLabel"><g transform="translate(0, 0)" class="label"><foreignObject height="0" width="0"><div style="display: inline-block; white-space: nowrap;" xmlns="http://www.w3.org/1999/xhtml"><span class="edgeLabel"></span></div></foreignObject></g></g></g><g class="nodes"><g transform="translate(291, 190)" data-id="V1" data-node="true" id="flowchart-V1-0" class="node default versionStyle flowchart-label"><rect height="36" width="98" y="-18" x="-49" ry="18" rx="18" style=""></rect><g transform="translate(-37, -10.5)" style="" class="label"><rect></rect><foreignObject height="21" width="74"><div style="display: inline-block; white-space: nowrap;" xmlns="http://www.w3.org/1999/xhtml"><span class="nodeLabel">版本1快照</span></div></foreignObject></g></g><g transform="translate(317.75, 276)" data-id="F1A" data-node="true" id="flowchart-F1A-1" class="node default fileStyle flowchart-label"><rect height="36" width="67" y="-18" x="-33.5" ry="18" rx="18" style=""></rect><g transform="translate(-21.5, -10.5)" style="" class="label"><rect></rect><foreignObject height="21" width="43"><div style="display: inline-block; white-space: nowrap;" xmlns="http://www.w3.org/1999/xhtml"><span class="nodeLabel">文件A</span></div></foreignObject></g></g><g transform="translate(35.5, 276)" data-id="F1B" data-node="true" id="flowchart-F1B-3" class="node default fileStyle flowchart-label"><rect height="36" width="67" y="-18" x="-33.5" ry="18" rx="18" style=""></rect><g transform="translate(-21.5, -10.5)" style="" class="label"><rect></rect><foreignObject height="21" width="43"><div style="display: inline-block; white-space: nowrap;" xmlns="http://www.w3.org/1999/xhtml"><span class="nodeLabel">文件B</span></div></foreignObject></g></g><g transform="translate(434.75, 276)" data-id="F1C" data-node="true" id="flowchart-F1C-5" class="node default fileStyle flowchart-label"><rect height="36" width="67" y="-18" x="-33.5" ry="18" rx="18" style=""></rect><g transform="translate(-21.5, -10.5)" style="" class="label"><rect></rect><foreignObject height="21" width="43"><div style="display: inline-block; white-space: nowrap;" xmlns="http://www.w3.org/1999/xhtml"><span class="nodeLabel">文件C</span></div></foreignObject></g></g><g transform="translate(77, 104)" data-id="V2" data-node="true" id="flowchart-V2-6" class="node default versionStyle flowchart-label"><rect height="36" width="98" y="-18" x="-49" ry="18" rx="18" style=""></rect><g transform="translate(-37, -10.5)" style="" class="label"><rect></rect><foreignObject height="21" width="74"><div style="display: inline-block; white-space: nowrap;" xmlns="http://www.w3.org/1999/xhtml"><span class="nodeLabel">版本2快照</span></div></foreignObject></g></g><g transform="translate(156.5, 190)" data-id="F2A" data-node="true" id="flowchart-F2A-7" class="node default fileStyle flowchart-label"><rect height="36" width="71" y="-18" x="-35.5" ry="18" rx="18" style=""></rect><g transform="translate(-23.5, -10.5)" style="" class="label"><rect></rect><foreignObject height="21" width="47"><div style="display: inline-block; white-space: nowrap;" xmlns="http://www.w3.org/1999/xhtml"><span class="nodeLabel">文件A'</span></div></foreignObject></g></g><g transform="translate(35.5, 190)" data-id="Link1" data-node="true" id="flowchart-Link1-9" class="node default pointerStyle flowchart-label"><polygon style="" transform="translate(-23.5,18)" class="label-container" points="-12,0 41,0 59,-36 6,-36"></polygon><g transform="translate(-16, -10.5)" style="" class="label"><rect></rect><foreignObject height="21" width="32"><div style="display: inline-block; white-space: nowrap;" xmlns="http://www.w3.org/1999/xhtml"><span class="nodeLabel">链接</span></div></foreignObject></g></g><g transform="translate(469, 190)" data-id="F2C" data-node="true" id="flowchart-F2C-12" class="node default fileStyle flowchart-label"><rect height="36" width="71" y="-18" x="-35.5" ry="18" rx="18" style=""></rect><g transform="translate(-23.5, -10.5)" style="" class="label"><rect></rect><foreignObject height="21" width="47"><div style="display: inline-block; white-space: nowrap;" xmlns="http://www.w3.org/1999/xhtml"><span class="nodeLabel">文件C'</span></div></foreignObject></g></g><g transform="translate(373.5, 18)" data-id="V3" data-node="true" id="flowchart-V3-13" class="node default versionStyle flowchart-label"><rect height="36" width="98" y="-18" x="-49" ry="18" rx="18" style=""></rect><g transform="translate(-37, -10.5)" style="" class="label"><rect></rect><foreignObject height="21" width="74"><div style="display: inline-block; white-space: nowrap;" xmlns="http://www.w3.org/1999/xhtml"><span class="nodeLabel">版本3快照</span></div></foreignObject></g></g><g transform="translate(211.5, 104)" data-id="Link2" data-node="true" id="flowchart-Link2-14" class="node default pointerStyle flowchart-label"><polygon style="" transform="translate(-23.5,18)" class="label-container" points="-12,0 41,0 59,-36 6,-36"></polygon><g transform="translate(-16, -10.5)" style="" class="label"><rect></rect><foreignObject height="21" width="32"><div style="display: inline-block; white-space: nowrap;" xmlns="http://www.w3.org/1999/xhtml"><span class="nodeLabel">链接</span></div></foreignObject></g></g><g transform="translate(334.5, 104)" data-id="F3B" data-node="true" id="flowchart-F3B-17" class="node default fileStyle flowchart-label"><rect height="36" width="75" y="-18" x="-37.5" ry="18" rx="18" style=""></rect><g transform="translate(-25.5, -10.5)" style="" class="label"><rect></rect><foreignObject height="21" width="51"><div style="display: inline-block; white-space: nowrap;" xmlns="http://www.w3.org/1999/xhtml"><span class="nodeLabel">文件B''</span></div></foreignObject></g></g><g transform="translate(469, 104)" data-id="Link3" data-node="true" id="flowchart-Link3-19" class="node default pointerStyle flowchart-label"><polygon style="" transform="translate(-23.5,18)" class="label-container" points="-12,0 41,0 59,-36 6,-36"></polygon><g transform="translate(-16, -10.5)" style="" class="label"><rect></rect><foreignObject height="21" width="32"><div style="display: inline-block; white-space: nowrap;" xmlns="http://www.w3.org/1999/xhtml"><span class="nodeLabel">链接</span></div></foreignObject></g></g></g></g></g></svg>