<svg aria-roledescription="flowchart-v2" role="graphics-document document" viewBox="-8 -7.999996185302734 487 589.2908325195312" style="max-width: 487px;" xmlns="http://www.w3.org/2000/svg" width="487" id="svg" xmlns:xlink="http://www.w3.org/1999/xlink" height="589.2908325195312"><style>#svg{font-family:"trebuchet ms",verdana,arial,sans-serif;font-size:16px;fill:#333;}#svg .error-icon{fill:#552222;}#svg .error-text{fill:#552222;stroke:#552222;}#svg .edge-thickness-normal{stroke-width:2px;}#svg .edge-thickness-thick{stroke-width:3.5px;}#svg .edge-pattern-solid{stroke-dasharray:0;}#svg .edge-pattern-dashed{stroke-dasharray:3;}#svg .edge-pattern-dotted{stroke-dasharray:2;}#svg .marker{fill:#333333;stroke:#333333;}#svg .marker.cross{stroke:#333333;}#svg svg{font-family:"trebuchet ms",verdana,arial,sans-serif;font-size:16px;}#svg .label{font-family:"trebuchet ms",verdana,arial,sans-serif;color:#333;}#svg .cluster-label text{fill:#333;}#svg .cluster-label span,#svg p{color:#333;}#svg .label text,#svg span,#svg p{fill:#333;color:#333;}#svg .node rect,#svg .node circle,#svg .node ellipse,#svg .node polygon,#svg .node path{fill:#ECECFF;stroke:#9370DB;stroke-width:1px;}#svg .flowchart-label text{text-anchor:middle;}#svg .node .katex path{fill:#000;stroke:#000;stroke-width:1px;}#svg .node .label{text-align:center;}#svg .node.clickable{cursor:pointer;}#svg .arrowheadPath{fill:#333333;}#svg .edgePath .path{stroke:#333333;stroke-width:2.0px;}#svg .flowchart-link{stroke:#333333;fill:none;}#svg .edgeLabel{background-color:#e8e8e8;text-align:center;}#svg .edgeLabel rect{opacity:0.5;background-color:#e8e8e8;fill:#e8e8e8;}#svg .labelBkg{background-color:rgba(232, 232, 232, 0.5);}#svg .cluster rect{fill:#ffffde;stroke:#aaaa33;stroke-width:1px;}#svg .cluster text{fill:#333;}#svg .cluster span,#svg p{color:#333;}#svg div.mermaidTooltip{position:absolute;text-align:center;max-width:200px;padding:2px;font-family:"trebuchet ms",verdana,arial,sans-serif;font-size:12px;background:hsl(80, 100%, 96.2745098039%);border:1px solid #aaaa33;border-radius:2px;pointer-events:none;z-index:100;}#svg .flowchartTitleText{text-anchor:middle;font-size:18px;fill:#333;}#svg .today{display:none;}#svg .label foreignObject{overflow:visible;}#svg :root{--mermaid-font-family:"trebuchet ms",verdana,arial,sans-serif;}#svg .repoStyle&gt;*{fill:#4A90E2!important;stroke:none!important;color:#fff!important;}#svg .repoStyle span{fill:#4A90E2!important;stroke:none!important;color:#fff!important;}#svg .repoStyle tspan{fill:#fff!important;}#svg .advantageStyle&gt;*{fill:#50C878!important;stroke:none!important;color:#fff!important;}#svg .advantageStyle span{fill:#50C878!important;stroke:none!important;color:#fff!important;}#svg .advantageStyle tspan{fill:#fff!important;}</style><g><marker orient="auto" markerHeight="12" markerWidth="12" markerUnits="userSpaceOnUse" refY="5" refX="6" viewBox="0 0 10 10" class="marker flowchart" id="svg_flowchart-pointEnd"><path style="stroke-width: 1; stroke-dasharray: 1, 0;" class="arrowMarkerPath" d="M 0 0 L 10 5 L 0 10 z"></path></marker><marker orient="auto" markerHeight="12" markerWidth="12" markerUnits="userSpaceOnUse" refY="5" refX="4.5" viewBox="0 0 10 10" class="marker flowchart" id="svg_flowchart-pointStart"><path style="stroke-width: 1; stroke-dasharray: 1, 0;" class="arrowMarkerPath" d="M 0 5 L 10 10 L 10 0 z"></path></marker><marker orient="auto" markerHeight="11" markerWidth="11" markerUnits="userSpaceOnUse" refY="5" refX="11" viewBox="0 0 10 10" class="marker flowchart" id="svg_flowchart-circleEnd"><circle style="stroke-width: 1; stroke-dasharray: 1, 0;" class="arrowMarkerPath" r="5" cy="5" cx="5"></circle></marker><marker orient="auto" markerHeight="11" markerWidth="11" markerUnits="userSpaceOnUse" refY="5" refX="-1" viewBox="0 0 10 10" class="marker flowchart" id="svg_flowchart-circleStart"><circle style="stroke-width: 1; stroke-dasharray: 1, 0;" class="arrowMarkerPath" r="5" cy="5" cx="5"></circle></marker><marker orient="auto" markerHeight="11" markerWidth="11" markerUnits="userSpaceOnUse" refY="5.2" refX="12" viewBox="0 0 11 11" class="marker cross flowchart" id="svg_flowchart-crossEnd"><path style="stroke-width: 2; stroke-dasharray: 1, 0;" class="arrowMarkerPath" d="M 1,1 l 9,9 M 10,1 l -9,9"></path></marker><marker orient="auto" markerHeight="11" markerWidth="11" markerUnits="userSpaceOnUse" refY="5.2" refX="-1" viewBox="0 0 11 11" class="marker cross flowchart" id="svg_flowchart-crossStart"><path style="stroke-width: 2; stroke-dasharray: 1, 0;" class="arrowMarkerPath" d="M 1,1 l 9,9 M 10,1 l -9,9"></path></marker><g class="root"><g class="clusters"></g><g class="edgePaths"><path marker-end="url(#svg_flowchart-pointEnd)" style="fill:none;stroke-width:2px;stroke-dasharray:3;" class="edge-thickness-normal edge-pattern-dotted flowchart-link LS-Local1 LE-Remote" id="L-Local1-Remote-0" d="M53.516,90.118L50.347,96.251C47.177,102.384,40.839,114.65,37.669,134.317C34.5,153.985,34.5,181.054,34.5,208.123C34.5,235.193,34.5,262.262,34.5,289.331C34.5,316.4,34.5,343.47,34.5,370.539C34.5,397.608,34.5,424.678,61.84,448.509C89.18,472.34,143.86,492.932,171.2,503.229L198.54,513.525"></path><path marker-end="url(#svg_flowchart-pointEnd)" style="fill:none;stroke-width:2px;stroke-dasharray:3;" class="edge-thickness-normal edge-pattern-dotted flowchart-link LS-Local2 LE-Remote" id="L-Local2-Remote-0" d="M267.072,253.648L265.852,259.595C264.632,265.543,262.191,277.437,260.97,296.919C259.75,316.4,259.75,343.47,259.75,370.539C259.75,397.608,259.75,424.678,258.671,443.309C257.592,461.94,255.433,472.133,254.354,477.23L253.275,482.327"></path><path marker-end="url(#svg_flowchart-pointEnd)" style="fill:none;stroke-width:2px;stroke-dasharray:3;" class="edge-thickness-normal edge-pattern-dotted flowchart-link LS-Local3 LE-Remote" id="L-Local3-Remote-0" d="M367.266,414.949L364.097,421.082C360.927,427.215,354.589,439.481,341.169,453.261C327.749,467.041,307.249,482.336,296.998,489.983L286.748,497.63"></path><path marker-end="url(#svg_flowchart-pointEnd)" style="fill:none;stroke-width:2px;stroke-dasharray:3;" class="edge-thickness-normal edge-pattern-dotted flowchart-link LS-Local1 LE-Local2" id="L-Local1-Local2-0" d="M131,67.39L155.25,77.311C179.5,87.232,228,107.074,252.25,122.028C276.5,136.982,276.5,147.049,276.5,152.082L276.5,157.116"></path><path marker-end="url(#svg_flowchart-pointEnd)" style="fill:none;stroke-width:2px;stroke-dasharray:3;" class="edge-thickness-normal edge-pattern-dotted flowchart-link LS-Local2 LE-Local3" id="L-Local2-Local3-0" d="M329.5,233.997L339.875,243.219C350.25,252.441,371,270.886,381.375,285.142C391.75,299.398,391.75,309.465,391.75,314.498L391.75,319.531"></path><path marker-end="url(#svg_flowchart-pointEnd)" style="fill:none;" class="edge-thickness-normal edge-pattern-solid flowchart-link LS-Local1 LE-Offline1" id="L-Local1-Offline1-0" d="M102.484,90.118L105.653,96.251C108.823,102.384,115.161,114.65,118.331,130.434C121.5,146.218,121.5,165.521,121.5,175.172L121.5,184.823"></path><path marker-end="url(#svg_flowchart-pointEnd)" style="fill:none;" class="edge-thickness-normal edge-pattern-solid flowchart-link LS-Local2 LE-Offline2" id="L-Local2-Offline2-0" d="M223.5,239.255L209.292,247.601C195.083,255.947,166.667,272.639,152.458,290.637C138.25,308.634,138.25,327.936,138.25,337.588L138.25,347.239"></path><path marker-end="url(#svg_flowchart-pointEnd)" style="fill:none;" class="edge-thickness-normal edge-pattern-solid flowchart-link LS-Local3 LE-Offline3" id="L-Local3-Offline3-0" d="M407.088,415.756L409.073,421.754C411.058,427.753,415.029,439.75,417.015,454.952C419,470.154,419,488.561,419,497.765L419,506.969"></path></g><g class="edgeLabels"><g transform="translate(34.5, 289.3311767578125)" class="edgeLabel"><g transform="translate(-34.5, -10.5)" class="label"><foreignObject height="21" width="69"><div style="display: inline-block; white-space: nowrap;" xmlns="http://www.w3.org/1999/xhtml"><span class="edgeLabel">推送/拉取</span></div></foreignObject></g></g><g transform="translate(259.75, 370.5389709472656)" class="edgeLabel"><g transform="translate(-34.5, -10.5)" class="label"><foreignObject height="21" width="69"><div style="display: inline-block; white-space: nowrap;" xmlns="http://www.w3.org/1999/xhtml"><span class="edgeLabel">推送/拉取</span></div></foreignObject></g></g><g transform="translate(348.25, 451.74676513671875)" class="edgeLabel"><g transform="translate(-34.5, -10.5)" class="label"><foreignObject height="21" width="69"><div style="display: inline-block; white-space: nowrap;" xmlns="http://www.w3.org/1999/xhtml"><span class="edgeLabel">推送/拉取</span></div></foreignObject></g></g><g transform="translate(276.5, 126.91558837890625)" class="edgeLabel"><g transform="translate(-32, -10.5)" class="label"><foreignObject height="21" width="64"><div style="display: inline-block; white-space: nowrap;" xmlns="http://www.w3.org/1999/xhtml"><span class="edgeLabel">直接交换</span></div></foreignObject></g></g><g transform="translate(391.75, 289.3311767578125)" class="edgeLabel"><g transform="translate(-32, -10.5)" class="label"><foreignObject height="21" width="64"><div style="display: inline-block; white-space: nowrap;" xmlns="http://www.w3.org/1999/xhtml"><span class="edgeLabel">直接交换</span></div></foreignObject></g></g><g class="edgeLabel"><g transform="translate(0, 0)" class="label"><foreignObject height="0" width="0"><div style="display: inline-block; white-space: nowrap;" xmlns="http://www.w3.org/1999/xhtml"><span class="edgeLabel"></span></div></foreignObject></g></g><g class="edgeLabel"><g transform="translate(0, 0)" class="label"><foreignObject height="0" width="0"><div style="display: inline-block; white-space: nowrap;" xmlns="http://www.w3.org/1999/xhtml"><span class="edgeLabel"></span></div></foreignObject></g></g><g class="edgeLabel"><g transform="translate(0, 0)" class="label"><foreignObject height="0" width="0"><div style="display: inline-block; white-space: nowrap;" xmlns="http://www.w3.org/1999/xhtml"><span class="edgeLabel"></span></div></foreignObject></g></g></g><g class="nodes"><g transform="translate(243, 530.2688255310059)" data-id="Remote" data-node="true" id="flowchart-Remote-0" class="node default repoStyle flowchart-label"><path transform="translate(-39.5,-43.02205882352941)" d="M 0,9.681372549019608 a 39.5,9.681372549019608 0,0,0 79 0 a 39.5,9.681372549019608 0,0,0 -79 0 l 0,66.68137254901961 a 39.5,9.681372549019608 0,0,0 79 0 l 0,-66.68137254901961" style=""></path><g transform="translate(-32, -21)" style="" class="label"><rect></rect><foreignObject height="42" width="64"><div style="display: inline-block; white-space: nowrap;" xmlns="http://www.w3.org/1999/xhtml"><span class="nodeLabel">远程仓库<br/>完整历史</span></div></foreignObject></g></g><g transform="translate(78, 45.707794189453125)" data-id="Local1" data-node="true" id="flowchart-Local1-1" class="node default repoStyle flowchart-label"><path transform="translate(-53,-45.70779220779221)" d="M 0,11.471861471861471 a 53,11.471861471861471 0,0,0 106 0 a 53,11.471861471861471 0,0,0 -106 0 l 0,68.47186147186147 a 53,11.471861471861471 0,0,0 106 0 l 0,-68.47186147186147" style=""></path><g transform="translate(-45.5, -21)" style="" class="label"><rect></rect><foreignObject height="42" width="91"><div style="display: inline-block; white-space: nowrap;" xmlns="http://www.w3.org/1999/xhtml"><span class="nodeLabel">开发者A仓库<br/>完整历史</span></div></foreignObject></g></g><g transform="translate(276.5, 208.12338256835938)" data-id="Local2" data-node="true" id="flowchart-Local2-3" class="node default repoStyle flowchart-label"><path transform="translate(-53,-45.70779220779221)" d="M 0,11.471861471861471 a 53,11.471861471861471 0,0,0 106 0 a 53,11.471861471861471 0,0,0 -106 0 l 0,68.47186147186147 a 53,11.471861471861471 0,0,0 106 0 l 0,-68.47186147186147" style=""></path><g transform="translate(-45.5, -21)" style="" class="label"><rect></rect><foreignObject height="42" width="91"><div style="display: inline-block; white-space: nowrap;" xmlns="http://www.w3.org/1999/xhtml"><span class="nodeLabel">开发者B仓库<br/>完整历史</span></div></foreignObject></g></g><g transform="translate(391.75, 370.5389709472656)" data-id="Local3" data-node="true" id="flowchart-Local3-5" class="node default repoStyle flowchart-label"><path transform="translate(-53,-45.70779220779221)" d="M 0,11.471861471861471 a 53,11.471861471861471 0,0,0 106 0 a 53,11.471861471861471 0,0,0 -106 0 l 0,68.47186147186147 a 53,11.471861471861471 0,0,0 106 0 l 0,-68.47186147186147" style=""></path><g transform="translate(-45.5, -21)" style="" class="label"><rect></rect><foreignObject height="42" width="91"><div style="display: inline-block; white-space: nowrap;" xmlns="http://www.w3.org/1999/xhtml"><span class="nodeLabel">开发者C仓库<br/>完整历史</span></div></foreignObject></g></g><g transform="translate(121.5, 208.12338256835938)" data-id="Offline1" data-node="true" id="flowchart-Offline1-12" class="node default advantageStyle flowchart-label"><rect height="36" width="104" y="-18" x="-52" ry="18" rx="18" style=""></rect><g transform="translate(-40, -10.5)" style="" class="label"><rect></rect><foreignObject height="21" width="80"><div style="display: inline-block; white-space: nowrap;" xmlns="http://www.w3.org/1999/xhtml"><span class="nodeLabel">可离线工作</span></div></foreignObject></g></g><g transform="translate(138.25, 370.5389709472656)" data-id="Offline2" data-node="true" id="flowchart-Offline2-14" class="node default advantageStyle flowchart-label"><rect height="36" width="104" y="-18" x="-52" ry="18" rx="18" style=""></rect><g transform="translate(-40, -10.5)" style="" class="label"><rect></rect><foreignObject height="21" width="80"><div style="display: inline-block; white-space: nowrap;" xmlns="http://www.w3.org/1999/xhtml"><span class="nodeLabel">可离线工作</span></div></foreignObject></g></g><g transform="translate(419, 530.2688255310059)" data-id="Offline3" data-node="true" id="flowchart-Offline3-16" class="node default advantageStyle flowchart-label"><rect height="36" width="104" y="-18" x="-52" ry="18" rx="18" style=""></rect><g transform="translate(-40, -10.5)" style="" class="label"><rect></rect><foreignObject height="21" width="80"><div style="display: inline-block; white-space: nowrap;" xmlns="http://www.w3.org/1999/xhtml"><span class="nodeLabel">可离线工作</span></div></foreignObject></g></g></g></g></g></svg>